<svg width="64" height="64" viewBox="0 0 64 64" fill="none" xmlns="http://www.w3.org/2000/svg">
  <!-- Teclado base -->
  <rect x="4" y="20" width="56" height="36" rx="4" fill="currentColor" opacity="0.1" stroke="currentColor" stroke-width="2"/>
  
  <!-- Fila superior de teclas -->
  <rect x="8" y="24" width="6" height="6" rx="1" fill="currentColor"/>
  <rect x="16" y="24" width="6" height="6" rx="1" fill="currentColor"/>
  <rect x="24" y="24" width="6" height="6" rx="1" fill="currentColor"/>
  <rect x="32" y="24" width="6" height="6" rx="1" fill="currentColor"/>
  <rect x="40" y="24" width="6" height="6" rx="1" fill="currentColor"/>
  <rect x="48" y="24" width="6" height="6" rx="1" fill="currentColor"/>
  
  <!-- Fila media de teclas -->
  <rect x="10" y="32" width="6" height="6" rx="1" fill="currentColor"/>
  <rect x="18" y="32" width="6" height="6" rx="1" fill="currentColor"/>
  <rect x="26" y="32" width="6" height="6" rx="1" fill="currentColor"/>
  <rect x="34" y="32" width="6" height="6" rx="1" fill="currentColor"/>
  <rect x="42" y="32" width="6" height="6" rx="1" fill="currentColor"/>
  
  <!-- Fila inferior de teclas -->
  <rect x="12" y="40" width="6" height="6" rx="1" fill="currentColor"/>
  <rect x="20" y="40" width="6" height="6" rx="1" fill="currentColor"/>
  
  <!-- Barra espaciadora -->
  <rect x="28" y="40" width="24" height="6" rx="1" fill="currentColor"/>
  
  <!-- Teclas especiales destacadas (con efecto de brillo) -->
  <g opacity="0.3">
    <rect x="24" y="24" width="6" height="6" rx="1" fill="currentColor"/>
    <rect x="26" y="32" width="6" height="6" rx="1" fill="currentColor"/>
  </g>
  
  <!-- Símbolos de velocidad/rayos -->
  <g opacity="0.8">
    <!-- Rayo izquierdo -->
    <path d="M14 8 L12 14 L16 13 L14 18 L18 12 L14 13 Z" fill="currentColor"/>
    
    <!-- Rayo derecho -->
    <path d="M50 8 L48 14 L52 13 L50 18 L54 12 L50 13 Z" fill="currentColor"/>
  </g>
  
  <!-- Líneas de movimiento rápido -->
  <line x1="8" y1="58" x2="20" y2="58" stroke="currentColor" stroke-width="1.5" stroke-linecap="round" opacity="0.6"/>
  <line x1="44" y1="58" x2="56" y2="58" stroke="currentColor" stroke-width="1.5" stroke-linecap="round" opacity="0.6"/>
</svg>
